<?xml version="1.0" encoding="UTF-8" standalone="no"?>

<svg
   xmlns:dc="http://purl.org/dc/elements/1.1/"
   xmlns:cc="http://creativecommons.org/ns#"
   xmlns:rdf="http://www.w3.org/1999/02/22-rdf-syntax-ns#"
   xmlns:svg="http://www.w3.org/2000/svg"
   xmlns="http://www.w3.org/2000/svg"
   xmlns:sodipodi="http://sodipodi.sourceforge.net/DTD/sodipodi-0.dtd"
   xmlns:inkscape="http://www.inkscape.org/namespaces/inkscape"
   version="1.1"
   id="Layer_1"
   x="0px"
   y="0px"
   width="379.69"
   height="90.410347"
   viewBox="0 0 379.69 90.410347"
   enable-background="new 0 0 500 500"
   xml:space="preserve"
   sodipodi:docname="openscap-horizontal.svg"
   inkscape:version="0.92+devel unknown"><metadata
     id="metadata35"><rdf:RDF><cc:Work
         rdf:about=""><dc:format>image/svg+xml</dc:format><dc:type
           rdf:resource="http://purl.org/dc/dcmitype/StillImage" /><dc:title></dc:title></cc:Work></rdf:RDF></metadata><defs
     id="defs33" /><sodipodi:namedview
     pagecolor="#ffffff"
     bordercolor="#666666"
     inkscape:document-rotation="0"
     borderopacity="1"
     objecttolerance="10"
     gridtolerance="10"
     guidetolerance="10"
     inkscape:pageopacity="0"
     inkscape:pageshadow="2"
     inkscape:window-width="1916"
     inkscape:window-height="1029"
     id="namedview31"
     showgrid="false"
     fit-margin-top="5"
     fit-margin-right="5"
     fit-margin-bottom="5"
     fit-margin-left="5"
     inkscape:zoom="1.766"
     inkscape:cx="67.113694"
     inkscape:cy="42.065161"
     inkscape:window-x="1920"
     inkscape:window-y="24"
     inkscape:window-maximized="0"
     inkscape:current-layer="Layer_1" /><g
     id="g28"
     transform="translate(-60.576,-201.65481)"><g
       id="g22"><g
         id="g10"><path
           fill="#37383E"
           d="m 169.79,247.271 c 0,-13.734 3.554,-21.628 16.446,-21.628 12.892,0 16.506,7.773 16.506,21.628 0,14.34 -3.552,21.268 -16.506,21.268 -12.954,0 -16.446,-7.292 -16.446,-21.268 z m 28.133,0 c 0,-11.265 -2.168,-17.53 -11.687,-17.53 -9.579,0 -11.688,6.204 -11.688,17.53 0,11.388 2.049,17.169 11.688,17.169 9.699,0 11.687,-5.419 11.687,-17.169 z"
           id="path2"
           inkscape:connector-curvature="0" /><path
           fill="#37383E"
           d="m 210.447,237.813 h 4.461 v 2.169 c 0,0 4.578,-2.77 9.036,-2.77 7.59,0 10.904,4.637 10.904,15.304 0,11.806 -3.855,16.023 -13.133,16.023 -2.83,0 -5.906,-0.484 -6.748,-0.664 v 13.438 h -4.521 v -43.5 z m 4.521,5.845 v 20.301 c 0.785,0.12 3.917,0.662 6.505,0.662 6.626,0 8.798,-3.434 8.798,-12.105 0,-8.255 -2.592,-11.27 -6.99,-11.27 -4.095,0.001 -8.313,2.412 -8.313,2.412 z"
           id="path4"
           inkscape:connector-curvature="0" /><path
           fill="#37383E"
           d="m 264.427,264.021 0.119,3.555 c 0,0 -6.865,0.965 -11.748,0.965 -8.973,0 -11.927,-5.242 -11.927,-15.482 0,-11.449 4.94,-15.844 12.593,-15.844 8.011,0 12.108,4.218 12.108,14.095 l -0.244,3.436 h -19.877 c 0,6.444 1.987,9.819 7.89,9.819 4.519,-0.003 11.086,-0.544 11.086,-0.544 z m -3.373,-12.893 c 0,-7.47 -2.288,-10.121 -7.59,-10.121 -5.119,0 -8.013,2.831 -8.075,10.121 z"
           id="path6"
           inkscape:connector-curvature="0" /><path
           fill="#37383E"
           d="m 272.618,267.938 v -30.125 h 4.457 v 2.11 c 0,0 4.88,-2.71 9.338,-2.71 8.314,0 10.181,4.095 10.181,14.82 v 15.906 h -4.458 v -15.787 c 0,-7.951 -0.903,-10.905 -6.506,-10.905 -4.338,0 -8.493,2.23 -8.493,2.23 v 24.461 z"
           id="path8"
           inkscape:connector-curvature="0" /></g><g
         id="g20"><path
           fill="#37383E"
           d="m 328.759,230.704 c 0,0 -8.372,-1.023 -11.865,-1.023 -5.905,0 -9.037,2.111 -9.037,6.808 0,5.421 2.893,6.325 10.183,7.953 8.312,1.866 11.987,3.915 11.987,11.207 0,9.217 -5.059,12.831 -13.314,12.831 -4.941,0 -13.193,-1.326 -13.193,-1.326 l 0.479,-3.854 c 0,0 8.198,1.083 12.474,1.083 5.905,0 8.917,-2.591 8.917,-8.372 0,-4.701 -2.47,-6.024 -9.277,-7.354 -8.615,-1.864 -12.955,-3.914 -12.955,-11.864 0,-8.075 5.302,-11.207 13.438,-11.207 4.938,0 12.59,1.203 12.59,1.203 z"
           id="path12"
           inkscape:connector-curvature="0" /><path
           fill="#37383E"
           d="m 363.217,267.272 c -2.952,0.603 -7.529,1.267 -11.507,1.267 -12.469,0 -15.24,-7.592 -15.24,-21.327 0,-14.097 2.711,-21.569 15.24,-21.569 4.278,0 8.861,0.783 11.507,1.326 l -0.18,3.916 c -2.71,-0.483 -7.591,-1.085 -10.842,-1.085 -9.278,0 -10.907,5.542 -10.907,17.412 0,11.627 1.507,17.169 11.028,17.169 3.37,0 7.828,-0.542 10.721,-1.084 z"
           id="path14"
           inkscape:connector-curvature="0" /><path
           fill="#37383E"
           d="m 378.578,226.247 h 10.12 l 11.447,41.691 h -4.578 L 392.554,257.21 H 374.72 l -3.01,10.728 h -4.579 z m -2.832,26.81 h 15.783 l -6.324,-22.832 h -3.134 z"
           id="path16"
           inkscape:connector-curvature="0" /><path
           fill="#37383E"
           d="m 411.347,253.9 v 14.038 h -4.638 v -41.691 h 15.245 c 9.093,0 13.312,4.396 13.312,13.434 0,9.097 -4.219,14.22 -13.312,14.22 h -10.607 z m 10.544,-4.097 c 6.086,0 8.616,-3.677 8.616,-10.122 0,-6.384 -2.53,-9.337 -8.616,-9.337 h -10.544 v 19.459 z"
           id="path18"
           inkscape:connector-curvature="0" /></g></g><g
       id="g26"><path
         fill="#064780"
         d="m 65.576,246.928 c 0,-10.681 4.106,-20.773 11.696,-28.364 8.049,-8.048 18.582,-12.27 29.658,-11.885 10.19,0.349 20.078,4.598 27.136,11.656 7.569,7.568 11.789,17.606 11.884,28.265 0.071,10.807 -4.113,21.043 -11.855,28.786 -15.634,15.635 -41.14,15.562 -56.863,-0.159 -1.748,-1.747 -2.273,-4.935 0.194,-7.4 L 88.11,257.139 c -2.423,-4.301 -5.85,-15.566 3.118,-24.537 9.016,-9.015 22.028,-7.167 28.911,-0.283 3.882,3.882 6.041,8.966 6.074,14.323 0.071,5.488 -2.173,10.728 -6.235,14.792 -4.954,4.952 -12.098,6.894 -19.116,5.197 -1.774,-0.432 -2.866,-2.221 -2.438,-3.998 0.43,-1.775 2.218,-2.868 3.996,-2.438 4.828,1.167 9.52,-0.089 12.875,-3.442 2.776,-2.778 4.299,-6.314 4.299,-9.975 0,-0.03 0,-0.061 0,-0.093 -0.025,-3.604 -1.495,-7.042 -4.135,-9.687 -4.633,-4.632 -13.428,-5.84 -19.553,0.286 -7.473,7.474 -1.946,16.748 -1.889,16.84 1.824,2.886 0.876,5.902 -1.034,7.505 l -9.967,9.966 c 11.692,10.598 32.234,13.271 46.396,-0.891 6.404,-6.402 9.919,-14.823 9.919,-23.742 0,-0.103 0,-0.203 -10e-4,-0.305 -0.08,-8.911 -3.611,-17.306 -9.946,-23.642 -5.885,-5.885 -14.154,-9.427 -22.681,-9.722 -9.225,-0.318 -18.013,3.216 -24.751,9.954 -10.317,10.314 -10.302,22.506 -9.377,28.852 0.404,2.79 1.293,5.763 2.57,8.598 0.75,1.666 0.007,3.628 -1.66,4.378 -1.667,0.748 -3.627,0.006 -4.375,-1.659 -1.549,-3.438 -2.585,-6.924 -3.088,-10.359 -0.298,-2.057 -0.446,-4.101 -0.446,-6.129 z"
         id="path24"
         inkscape:connector-curvature="0" /></g></g></svg>
