<?xml version="1.0" encoding="UTF-8" standalone="no"?>

<svg
   xmlns:dc="http://purl.org/dc/elements/1.1/"
   xmlns:cc="http://creativecommons.org/ns#"
   xmlns:rdf="http://www.w3.org/1999/02/22-rdf-syntax-ns#"
   xmlns:svg="http://www.w3.org/2000/svg"
   xmlns="http://www.w3.org/2000/svg"
   xmlns:sodipodi="http://sodipodi.sourceforge.net/DTD/sodipodi-0.dtd"
   xmlns:inkscape="http://www.inkscape.org/namespaces/inkscape"
   version="1.1"
   id="Layer_1"
   x="0px"
   y="0px"
   width="436.66669"
   height="436.66669"
   viewBox="0 0 409.37502 409.37502"
   enable-background="new 0 0 500 500"
   xml:space="preserve"
   inkscape:version="0.92+devel unknown"
   sodipodi:docname="openscap-icon-minimalistic.svg"><metadata
     id="metadata4399"><rdf:RDF><cc:Work
         rdf:about=""><dc:format>image/svg+xml</dc:format><dc:type
           rdf:resource="http://purl.org/dc/dcmitype/StillImage" /><dc:title></dc:title></cc:Work></rdf:RDF></metadata><defs
     id="defs4397" /><sodipodi:namedview
     pagecolor="#ffffff"
     bordercolor="#666666"
     borderopacity="1"
     objecttolerance="10"
     gridtolerance="10"
     guidetolerance="10"
     inkscape:pageopacity="0"
     inkscape:pageshadow="2"
     inkscape:window-width="1916"
     inkscape:window-height="1029"
     id="namedview4395"
     showgrid="false"
     inkscape:zoom="0.472"
     inkscape:cx="228.33334"
     inkscape:cy="228.33334"
     inkscape:window-x="1920"
     inkscape:window-y="24"
     inkscape:window-maximized="0"
     inkscape:current-layer="Layer_1"
     inkscape:document-rotation="0"
     fit-margin-top="5"
     fit-margin-right="5"
     fit-margin-bottom="5"
     fit-margin-left="5" /><g
     id="g4389"
     transform="matrix(1.3005033,0,0,1.2999622,-133.19316,-120.72583)"><g
       id="g4391"><path
         d="m 106.021,250.586 c 0,-40.873 15.713,-79.493 44.756,-108.533 30.803,-30.801 71.108,-46.958 113.491,-45.486 38.998,1.335 76.83,17.595 103.844,44.604 28.961,28.964 45.105,67.376 45.479,108.156 0.265,41.355 -15.748,80.535 -45.372,110.161 -59.821,59.823 -157.428,59.546 -217.593,-0.609 -6.688,-6.688 -8.697,-18.888 0.739,-28.324 l 40.887,-40.896 c -9.273,-16.454 -22.387,-59.572 11.927,-93.896 34.506,-34.497 84.296,-27.425 110.637,-1.082 14.851,14.853 23.111,34.314 23.245,54.809 0.263,21.005 -8.32,41.059 -23.867,56.604 -18.951,18.953 -46.293,26.379 -73.144,19.888 -6.794,-1.649 -10.964,-8.494 -9.327,-15.298 1.646,-6.795 8.49,-10.975 15.29,-9.322 18.468,4.464 36.427,-0.344 49.271,-13.184 10.62,-10.626 16.449,-24.158 16.449,-38.165 0,-0.111 0,-0.234 0,-0.35 -0.096,-13.793 -5.721,-26.953 -15.827,-37.069 -17.729,-17.727 -51.38,-22.352 -74.817,1.089 -28.597,28.605 -7.449,64.094 -7.229,64.444 6.982,11.044 3.354,22.582 -3.962,28.718 l -38.133,38.141 c 44.74,40.554 123.349,50.781 177.541,-3.408 24.504,-24.502 37.954,-56.728 37.954,-90.855 0,-0.392 0,-0.775 -0.005,-1.17 -0.303,-34.097 -13.821,-66.226 -38.063,-90.469 -22.516,-22.514 -54.153,-36.072 -86.792,-37.198 -35.293,-1.221 -68.935,12.306 -94.707,38.088 -39.483,39.473 -39.426,86.124 -35.895,110.409 1.555,10.67 4.956,22.056 9.842,32.896 2.873,6.378 0.027,13.88 -6.354,16.753 -6.375,2.866 -13.879,0.022 -16.745,-6.354 -5.923,-13.146 -9.886,-26.491 -11.808,-39.636 -1.141,-7.872 -1.712,-15.699 -1.712,-23.456 z"
         id="path4393"
         inkscape:connector-curvature="0"
         style="fill:#064780" /></g></g></svg>
