<?xml version="1.0" encoding="UTF-8" standalone="no"?>

<svg
   xmlns:dc="http://purl.org/dc/elements/1.1/"
   xmlns:cc="http://creativecommons.org/ns#"
   xmlns:rdf="http://www.w3.org/1999/02/22-rdf-syntax-ns#"
   xmlns:svg="http://www.w3.org/2000/svg"
   xmlns="http://www.w3.org/2000/svg"
   xmlns:sodipodi="http://sodipodi.sourceforge.net/DTD/sodipodi-0.dtd"
   xmlns:inkscape="http://www.inkscape.org/namespaces/inkscape"
   version="1.1"
   id="Layer_1"
   x="0px"
   y="0px"
   width="352.44699"
   height="299.4559"
   viewBox="0 0 352.44699 299.4559"
   enable-background="new 0 0 500 500"
   xml:space="preserve"
   sodipodi:docname="openscap-vertical.svg"
   inkscape:version="0.92+devel unknown"><metadata
     id="metadata35"><rdf:RDF><cc:Work
         rdf:about=""><dc:format>image/svg+xml</dc:format><dc:type
           rdf:resource="http://purl.org/dc/dcmitype/StillImage" /><dc:title></dc:title></cc:Work></rdf:RDF></metadata><defs
     id="defs33" /><sodipodi:namedview
     pagecolor="#ffffff"
     bordercolor="#666666"
     inkscape:document-rotation="0"
     borderopacity="1"
     objecttolerance="10"
     gridtolerance="10"
     guidetolerance="10"
     inkscape:pageopacity="0"
     inkscape:pageshadow="2"
     inkscape:window-width="1916"
     inkscape:window-height="1029"
     id="namedview31"
     showgrid="false"
     fit-margin-top="5"
     fit-margin-right="5"
     fit-margin-bottom="5"
     fit-margin-left="5"
     inkscape:zoom="1.766"
     inkscape:cx="52.834694"
     inkscape:cy="150.589"
     inkscape:window-x="1920"
     inkscape:window-y="24"
     inkscape:window-maximized="0"
     inkscape:current-layer="Layer_1" /><g
     id="g28"
     transform="translate(-74.855,-101.13311)"><g
       id="g22"><g
         id="g10"><path
           fill="#37383E"
           d="m 79.855,351.677 c 0,-17.717 4.582,-27.897 21.215,-27.897 16.628,0 21.291,10.025 21.291,27.897 0,18.498 -4.583,27.435 -21.291,27.435 -16.709,-0.002 -21.215,-9.407 -21.215,-27.435 z m 36.291,0 c 0,-14.53 -2.797,-22.612 -15.075,-22.612 -12.356,0 -15.079,8.006 -15.079,22.612 0,14.688 2.644,22.149 15.079,22.149 12.509,0 15.075,-6.994 15.075,-22.149 z"
           id="path2"
           inkscape:connector-curvature="0" /><path
           fill="#37383E"
           d="m 132.303,339.479 h 5.751 v 2.797 c 0,0 5.908,-3.573 11.658,-3.573 9.792,0 14.066,5.98 14.066,19.739 0,15.23 -4.973,20.67 -16.94,20.67 -3.65,0 -7.618,-0.623 -8.704,-0.855 v 17.332 h -5.831 z m 5.831,7.538 v 26.188 c 1.011,0.152 5.054,0.853 8.393,0.853 8.549,0 11.348,-4.429 11.348,-15.616 0,-10.647 -3.343,-14.535 -9.015,-14.535 -5.288,-0.002 -10.726,3.11 -10.726,3.11 z"
           id="path4"
           inkscape:connector-curvature="0" /><path
           fill="#37383E"
           d="m 201.93,373.283 0.157,4.584 c 0,0 -8.856,1.243 -15.154,1.243 -11.577,0 -15.387,-6.764 -15.387,-19.973 0,-14.766 6.372,-20.438 16.243,-20.438 10.335,0 15.622,5.439 15.622,18.184 l -0.317,4.433 h -25.641 c 0,8.312 2.562,12.666 10.18,12.666 5.827,0 14.297,-0.699 14.297,-0.699 z m -4.349,-16.631 c 0,-9.637 -2.955,-13.058 -9.793,-13.058 -6.604,0 -10.336,3.651 -10.414,13.058 z"
           id="path6"
           inkscape:connector-curvature="0" /><path
           fill="#37383E"
           d="m 212.497,378.336 v -38.857 h 5.75 v 2.72 c 0,0 6.292,-3.496 12.042,-3.496 10.726,0 13.136,5.283 13.136,19.117 v 20.518 h -5.75 v -20.363 c 0,-10.259 -1.166,-14.066 -8.392,-14.066 -5.6,0 -10.958,2.877 -10.958,2.877 v 31.554 h -5.828 z"
           id="path8"
           inkscape:connector-curvature="0" /></g><g
         id="g20"><path
           fill="#37383E"
           d="m 284.917,330.307 c 0,0 -10.803,-1.319 -15.309,-1.319 -7.614,0 -11.652,2.721 -11.652,8.78 0,6.994 3.728,8.161 13.132,10.259 10.727,2.407 15.46,5.049 15.46,14.456 0,11.888 -6.522,16.552 -17.172,16.552 -6.374,0 -17.018,-1.711 -17.018,-1.711 l 0.62,-4.976 c 0,0 10.568,1.4 16.087,1.4 7.615,0 11.502,-3.341 11.502,-10.804 0,-6.061 -3.187,-7.769 -11.969,-9.481 -11.11,-2.406 -16.708,-5.051 -16.708,-15.304 0,-10.418 6.838,-14.458 17.329,-14.458 6.373,0 16.243,1.555 16.243,1.555 z"
           id="path12"
           inkscape:connector-curvature="0" /><path
           fill="#37383E"
           d="m 329.368,377.479 c -3.812,0.775 -9.717,1.632 -14.849,1.632 -16.082,0 -19.657,-9.792 -19.657,-27.51 0,-18.185 3.497,-27.822 19.657,-27.822 5.519,0 11.429,1.011 14.849,1.711 l -0.236,5.054 c -3.496,-0.625 -9.791,-1.402 -13.983,-1.402 -11.969,0 -14.068,7.15 -14.068,22.461 0,14.997 1.941,22.146 14.222,22.146 4.351,0 10.099,-0.697 13.83,-1.4 z"
           id="path14"
           inkscape:connector-curvature="0" /><path
           fill="#37383E"
           d="m 349.179,324.557 h 13.054 l 14.77,53.779 h -5.906 L 367.21,364.5 h -23.006 l -3.883,13.836 h -5.906 z m -3.653,34.582 h 20.358 l -8.156,-29.451 h -4.045 z"
           id="path16"
           inkscape:connector-curvature="0" /><path
           fill="#37383E"
           d="m 391.448,360.227 v 18.109 h -5.984 v -53.779 h 19.666 c 11.732,0 17.172,5.674 17.172,17.329 0,11.735 -5.438,18.341 -17.172,18.341 z m 13.6,-5.285 c 7.851,0 11.117,-4.743 11.117,-13.058 0,-8.234 -3.269,-12.045 -11.117,-12.045 h -13.6 v 25.103 z"
           id="path18"
           inkscape:connector-curvature="0" /></g></g><g
       id="g26"><path
         fill="#064780"
         d="m 161.292,196.11 c 0,-23.863 9.174,-46.411 26.13,-63.366 17.983,-17.982 41.516,-27.416 66.261,-26.557 22.77,0.779 44.857,10.272 60.628,26.042 16.908,16.91 26.334,39.337 26.554,63.146 0.153,24.146 -9.195,47.02 -26.49,64.316 -34.926,34.928 -91.913,34.766 -127.039,-0.355 -3.904,-3.905 -5.078,-11.027 0.432,-16.537 l 23.871,-23.877 c -5.414,-9.605 -13.068,-34.78 6.963,-54.82 20.146,-20.141 49.216,-16.012 64.595,-0.632 8.67,8.671 13.494,20.034 13.571,31.999 0.152,12.265 -4.857,23.973 -13.935,33.048 -11.064,11.065 -27.027,15.401 -42.704,11.611 -3.967,-0.964 -6.401,-4.96 -5.445,-8.932 0.962,-3.968 4.957,-6.407 8.928,-5.443 10.781,2.606 21.268,-0.2 28.767,-7.696 6.2,-6.204 9.604,-14.104 9.604,-22.281 0,-0.065 0,-0.139 0,-0.204 -0.056,-8.054 -3.34,-15.736 -9.239,-21.644 -10.352,-10.35 -29.998,-13.05 -43.683,0.636 -16.694,16.701 -4.349,37.421 -4.221,37.625 4.077,6.448 1.958,13.186 -2.312,16.768 l -22.265,22.268 c 26.122,23.677 72.017,29.648 103.656,-1.989 14.306,-14.306 22.158,-33.119 22.158,-53.046 0,-0.229 0,-0.452 -0.002,-0.683 -0.177,-19.907 -8.07,-38.665 -22.223,-52.819 -13.146,-13.145 -31.618,-21.061 -50.672,-21.718 -20.605,-0.713 -40.248,7.185 -55.294,22.237 -23.052,23.045 -23.019,50.282 -20.957,64.461 0.908,6.229 2.895,12.877 5.747,19.205 1.677,3.724 0.017,8.104 -3.71,9.781 -3.722,1.674 -8.103,0.014 -9.775,-3.709 -3.459,-7.677 -5.771,-15.468 -6.894,-23.142 -0.672,-4.594 -1.005,-9.164 -1.005,-13.693 z"
         id="path24"
         inkscape:connector-curvature="0" /></g></g></svg>
