<?xml version="1.0" encoding="UTF-8" standalone="no"?>

<svg
   xmlns:dc="http://purl.org/dc/elements/1.1/"
   xmlns:cc="http://creativecommons.org/ns#"
   xmlns:rdf="http://www.w3.org/1999/02/22-rdf-syntax-ns#"
   xmlns:svg="http://www.w3.org/2000/svg"
   xmlns="http://www.w3.org/2000/svg"
   xmlns:sodipodi="http://sodipodi.sourceforge.net/DTD/sodipodi-0.dtd"
   xmlns:inkscape="http://www.inkscape.org/namespaces/inkscape"
   version="1.1"
   id="Layer_1"
   x="0px"
   y="0px"
   width="238.85201"
   height="240.882"
   viewBox="0 0 238.85201 240.882"
   enable-background="new 0 0 327 327"
   xml:space="preserve"
   sodipodi:docname="scap-workbench-square.svg"
   inkscape:version="0.92+devel unknown"><metadata
     id="metadata60"><rdf:RDF><cc:Work
         rdf:about=""><dc:format>image/svg+xml</dc:format><dc:type
           rdf:resource="http://purl.org/dc/dcmitype/StillImage" /><dc:title></dc:title></cc:Work></rdf:RDF></metadata><defs
     id="defs58" /><sodipodi:namedview
     pagecolor="#ffffff"
     bordercolor="#666666"
     inkscape:document-rotation="0"
     borderopacity="1"
     objecttolerance="10"
     gridtolerance="10"
     guidetolerance="10"
     inkscape:pageopacity="0"
     inkscape:pageshadow="2"
     inkscape:window-width="1916"
     inkscape:window-height="1029"
     id="namedview56"
     showgrid="false"
     fit-margin-top="5"
     fit-margin-bottom="5"
     fit-margin-right="5"
     fit-margin-left="5"
     inkscape:zoom="2.7003058"
     inkscape:cx="39.43506"
     inkscape:cy="120.441"
     inkscape:window-x="1920"
     inkscape:window-y="24"
     inkscape:window-maximized="0"
     inkscape:current-layer="Layer_1" /><g
     id="Layer_2"
     display="none"
     transform="translate(-44.074,-43.059)"><g
       display="inline"
       id="g27"><g
         id="g23"><path
           fill="#D2F4C1"
           d="m -248.249,576.417 c -68.355,0 -123.783,56.168 -123.783,125.446 0,2.37 0.221,4.68 0.356,7.016 3.606,-65.991 57.408,-118.427 123.427,-118.427 66.023,0 119.812,52.436 123.429,118.427 0.121,-2.336 0.344,-4.646 0.344,-7.016 -0.002,-69.278 -55.416,-125.446 -123.773,-125.446 z"
           id="path2"
           inkscape:connector-curvature="0" /><linearGradient
           id="SVGID_1_"
           gradientUnits="userSpaceOnUse"
           x1="-676.49951"
           y1="214.7988"
           x2="-676.49951"
           y2="455.33051"
           gradientTransform="translate(428,369.8975)"><stop
             offset="0"
             style="stop-color:#81D05F"
             id="stop4" /><stop
             offset="1"
             style="stop-color:#3A6A2E"
             id="stop6" /></linearGradient><path
           fill="url(#SVGID_1_)"
           d="m -123.825,705.224 c 0,69.781 -55.816,126.355 -124.673,126.355 -68.859,0 -124.676,-56.573 -124.676,-126.355 0,-69.789 55.816,-126.358 124.676,-126.358 68.854,-0.002 124.673,56.569 124.673,126.358 z"
           id="path9"
           inkscape:connector-curvature="0"
           style="fill:url(#SVGID_1_)" /><g
           opacity="0.4"
           id="g13"><path
             fill="#0E1521"
             d="m -249.008,606.626 c 54.146,0 98.222,42.963 100.048,96.67 0.021,-0.844 0.086,-1.67 0.086,-2.512 0,-55.308 -44.818,-100.14 -100.134,-100.14 -55.299,0 -100.143,44.832 -100.143,100.14 0,1.002 0.051,1.996 0.078,2.981 1.586,-53.911 45.767,-97.139 100.065,-97.139 z"
             id="path11"
             inkscape:connector-curvature="0" /></g><path
           opacity="0.6"
           fill="#81D05F"
           enable-background="new    "
           d="m -248.557,801.531 c -27.502,0 -52.406,-11.088 -70.497,-29.037 -3.709,-4.19 3.746,-20.256 3.746,-20.256 0,0 -6.562,5.586 -8.278,8.387 -3.268,5.347 -1.521,10.787 1.854,15.037 18.3,19.922 43.99,31.844 73.177,31.844 55.311,0 100.147,-44.829 100.147,-100.137 0,-1.006 -0.055,-1.992 -0.082,-2.979 -1.583,53.91 -45.759,97.141 -100.067,97.141 z"
           id="path15"
           inkscape:connector-curvature="0" /><g
           id="g21"><g
             id="g19"><path
               fill="#1F421B"
               d="m -349.31,704.171 c 0,-26.72 10.271,-51.965 29.256,-70.947 20.136,-20.137 46.483,-30.693 74.189,-29.734 25.493,0.871 50.222,11.504 67.882,29.157 18.934,18.937 29.48,44.046 29.729,70.702 0.174,27.033 -10.293,52.646 -29.66,72.014 -39.104,39.102 -102.908,38.922 -142.234,-0.398 -4.375,-4.375 -5.688,-12.352 0.481,-18.518 l 26.726,-26.734 c -6.062,-10.754 -14.631,-38.938 7.799,-61.375 22.558,-22.549 55.103,-17.928 72.322,-0.707 9.703,9.703 15.104,22.433 15.191,35.829 0.172,13.729 -5.438,26.84 -15.6,37 -12.393,12.395 -30.261,17.244 -47.816,12.998 -4.439,-1.078 -7.166,-5.554 -6.096,-10 1.076,-4.438 5.551,-7.17 9.992,-6.092 12.073,2.916 23.812,-0.229 32.21,-8.621 6.941,-6.941 10.754,-15.787 10.754,-24.945 0,-0.07 0,-0.156 0,-0.229 -0.062,-9.017 -3.74,-17.616 -10.35,-24.23 -11.588,-11.586 -33.585,-14.608 -48.908,0.711 -18.693,18.701 -4.87,41.899 -4.725,42.127 4.561,7.224 2.19,14.761 -2.592,18.771 l -24.926,24.932 c 29.244,26.517 80.632,33.201 116.054,-2.227 16.021,-16.019 24.812,-37.08 24.812,-59.394 0,-0.257 0,-0.509 -0.004,-0.767 -0.195,-22.287 -9.031,-43.293 -24.883,-59.141 -14.721,-14.719 -35.398,-23.578 -56.733,-24.313 -23.07,-0.798 -45.059,8.042 -61.909,24.896 -25.812,25.804 -25.771,56.301 -23.463,72.176 1.016,6.975 3.24,14.413 6.433,21.504 1.88,4.17 0.021,9.068 -4.153,10.95 -4.166,1.875 -9.069,0.017 -10.945,-4.153 -3.871,-8.592 -6.461,-17.313 -7.717,-25.908 -0.746,-5.149 -1.116,-10.261 -1.116,-15.334 z"
               id="path17"
               inkscape:connector-curvature="0" /></g></g></g><path
         opacity="0.15"
         fill="#1F421B"
         enable-background="new    "
         d="m -231.899,742.958 c -51.392,10.912 -102.513,-3.621 -141.261,-35.316 1.271,68.666 56.584,123.939 124.646,123.939 68.853,0 124.673,-56.572 124.673,-126.354 0,-11.459 -1.514,-22.562 -4.336,-33.114 -23.652,35.308 -59.822,61.521 -103.722,70.845 z"
         id="path25"
         inkscape:connector-curvature="0" /></g></g><g
     id="g52"
     transform="translate(-44.074,-43.059)"><g
       id="Layer_3"><path
         fill="#D2F4C1"
         d="m 277.926,71.458 c 0,-12.923 -10.478,-23.399 -23.4,-23.399 H 72.476 c -12.923,0 -23.4,10.477 -23.4,23.399 z"
         id="path30"
         inkscape:connector-curvature="0" /><linearGradient
         id="SVGID_2_"
         gradientUnits="userSpaceOnUse"
         x1="-1219.4985"
         y1="-378.6553"
         x2="-1219.4985"
         y2="-160.8094"
         gradientTransform="matrix(-1,0,0,1,-1055.999,433.998)"><stop
           offset="0"
           style="stop-color:#81D05F"
           id="stop32" /><stop
           offset="1"
           style="stop-color:#3A6A2E"
           id="stop34" /></linearGradient><path
         fill="url(#SVGID_2_)"
         d="m 49.074,255.541 c 0,12.924 10.478,23.4 23.4,23.4 h 182.05 c 12.924,0 23.4,-10.477 23.4,-23.4 V 73.458 c 0,-12.923 -10.478,-23.399 -23.4,-23.399 H 72.475 c -12.923,0 -23.4,10.477 -23.4,23.399 v 182.083 z"
         id="path37"
         inkscape:connector-curvature="0"
         style="fill:url(#SVGID_2_)" /><path
         opacity="0.15"
         fill="#1F421B"
         enable-background="new    "
         d="M 180.102,201.863 C 133.114,211.84 86.36,200.535 49.075,174.302 v 81.238 c 0,12.924 10.478,23.4 23.4,23.4 h 182.05 c 12.924,0 23.4,-10.477 23.4,-23.4 V 139.274 c -23.574,31.115 -57.421,54.007 -97.823,62.589 z"
         id="path39"
         inkscape:connector-curvature="0" /></g><g
       id="Layer_4"><path
         opacity="0.6"
         fill="#81D05F"
         enable-background="new    "
         d="m 253.983,238.971 c 0,9.939 -8.059,18 -18,18 0,0 -148.341,0 -148.479,0 -8.053,0 -14.579,-6.529 -14.579,-14.582 0,-3.572 1.26,-6.807 3.392,-9.34 l 1.072,-1.311 15.187,8.166 139.878,0.006 c 2.485,0 21.529,-0.939 21.529,-0.939 z"
         id="path42"
         inkscape:connector-curvature="0" /><path
         opacity="0.6"
         fill="#81D05F"
         enable-background="new    "
         d="M 197.758,164.156"
         id="path44"
         inkscape:connector-curvature="0" /><path
         opacity="0.4"
         fill="#0E1521"
         enable-background="new    "
         d="m 253.983,89.91 c 0,-9.939 -8.059,-18 -18,-18 H 90.925 c -9.941,0 -18,8.061 -18,18 l 16.695,3.167 c 0,-2.484 2.016,-4.5 4.5,-4.5 h 138.334 c 2.485,0 4.5,2.016 4.5,4.5 z"
         id="path46"
         inkscape:connector-curvature="0" /></g><g
       id="Layer_1_1_"><path
         fill="#1F421B"
         d="M 235.983,73.91 H 90.925 c -9.941,0 -18,8.061 -18,18 v 109.061 c 0,4.604 3.73,8.334 8.333,8.334 4.603,0 8.333,-3.73 8.333,-8.334 L 89.62,95.077 c 0,-2.484 2.016,-4.5 4.5,-4.5 h 138.334 c 2.485,0 4.5,2.016 4.5,4.5 V 233.41 c 0,2.486 -2.015,4.5 -4.5,4.5 l -139.878,-0.004 38.607,-38.602 c 4.783,-4.014 7.153,-11.547 2.592,-18.771 -0.146,-0.227 -13.969,-23.424 4.725,-42.125 15.323,-15.32 37.321,-12.297 48.908,-0.711 6.608,6.613 10.286,15.214 10.35,24.229 0,0.071 0,0.156 0,0.229 0,9.156 -3.812,18.003 -10.754,24.945 -8.396,8.393 -20.139,11.537 -32.211,8.621 -4.441,-1.078 -8.917,1.652 -9.992,6.092 -1.069,4.445 1.656,8.922 6.096,9.998 17.555,4.246 35.425,-0.604 47.815,-12.996 10.163,-10.16 15.771,-23.273 15.602,-37 -0.088,-13.396 -5.489,-26.126 -15.191,-35.828 -17.219,-17.221 -49.765,-21.842 -72.322,0.708 -22.43,22.435 -13.861,50.621 -7.801,61.373 l -41.61,41.67 -1.072,1.311 c -2.132,2.533 -3.392,5.768 -3.392,9.34 0,8.053 6.526,14.582 14.58,14.582 0.138,0 148.479,0 148.479,0 9.941,0 18,-8.061 18,-18 V 91.91 c -0.002,-9.941 -8.059,-18 -18.002,-18 z"
         id="path49"
         inkscape:connector-curvature="0" /></g></g><g
     id="Layer_5"
     transform="translate(-44.074,-43.059)" /></svg>
