<?xml version="1.0" encoding="UTF-8" standalone="no"?>
<!-- Created with Inkscape (http://www.inkscape.org/) -->

<svg
   xmlns:dc="http://purl.org/dc/elements/1.1/"
   xmlns:cc="http://creativecommons.org/ns#"
   xmlns:rdf="http://www.w3.org/1999/02/22-rdf-syntax-ns#"
   xmlns:svg="http://www.w3.org/2000/svg"
   xmlns="http://www.w3.org/2000/svg"
   xmlns:sodipodi="http://sodipodi.sourceforge.net/DTD/sodipodi-0.dtd"
   xmlns:inkscape="http://www.inkscape.org/namespaces/inkscape"
   version="1.1"
   width="650"
   height="233.16881"
   viewBox="0 0 609.37502 218.59575"
   id="Layer_1"
   xml:space="preserve"
   inkscape:version="0.92+devel unknown"
   sodipodi:docname="scap-workbench-horizontal.svg"
   inkscape:export-xdpi="50"
   inkscape:export-ydpi="50"><sodipodi:namedview
     pagecolor="#ffffff"
     bordercolor="#666666"
     borderopacity="1"
     objecttolerance="10"
     gridtolerance="10"
     guidetolerance="10"
     inkscape:pageopacity="0"
     inkscape:pageshadow="2"
     inkscape:window-width="1916"
     inkscape:window-height="1029"
     id="namedview4160"
     showgrid="false"
     inkscape:zoom="0.57541666"
     inkscape:cx="29.207911"
     inkscape:cy="125.1194"
     inkscape:window-x="1920"
     inkscape:window-y="24"
     inkscape:window-maximized="0"
     inkscape:current-layer="Layer_1"
     inkscape:document-rotation="0"
     fit-margin-top="5"
     fit-margin-left="5"
     fit-margin-bottom="5"
     fit-margin-right="5" /><metadata
     id="metadata49"><rdf:RDF><cc:Work
         rdf:about=""><dc:format>image/svg+xml</dc:format><dc:type
           rdf:resource="http://purl.org/dc/dcmitype/StillImage" /><dc:title></dc:title></cc:Work></rdf:RDF></metadata><defs
     id="defs47" /><g
     transform="matrix(2.0647079,0,0,2.0647079,-69.129937,-270.89961)"
     id="g3"><path
       d="m 123.575,234.807 c -9.678,0 -17.552,-7.875 -17.552,-17.552 0,-9.679 7.875,-17.552 17.552,-17.552 9.677,0 17.551,7.873 17.551,17.552 0,9.677 -7.872,17.552 -17.551,17.552 z"
       id="path5"
       style="fill:#40602e"
       inkscape:connector-curvature="0" /><g
       id="g7"><path
         d="m 44.403,189.686 c -1.142,-7.847 -1.162,-22.93 11.602,-35.688 8.333,-8.333 19.205,-12.705 30.612,-12.308 10.55,0.361 20.775,4.745 28.053,12.021 7.838,7.835 12.206,18.223 12.303,29.243 0.002,0.127 0.002,0.252 0.002,0.38 0,4.168 -0.623,8.249 -1.822,12.137 2.816,0.201 5.487,0.937 7.909,2.107 1.418,-4.716 2.135,-9.656 2.103,-14.699 -0.123,-13.18 -5.337,-25.598 -14.699,-34.958 -8.732,-8.728 -20.959,-13.985 -33.565,-14.416 -13.7,-0.476 -26.728,4.746 -36.684,14.704 -9.387,9.385 -14.465,21.869 -14.465,35.08 0,2.507 0.183,5.035 0.553,7.583 0.62,4.251 1.902,8.562 3.815,12.81 0.927,2.062 3.351,2.979 5.413,2.056 2.065,-0.934 2.983,-3.355 2.053,-5.417 -1.581,-3.509 -2.679,-7.183 -3.183,-10.635 z"
         id="path9"
         style="fill:#69af45"
         inkscape:connector-curvature="0" /><path
         d="m 102.129,221.387 c -15.643,6.889 -33.547,2.63 -44.808,-7.582 l 12.324,-12.328 c 2.365,-1.985 3.537,-5.712 1.283,-9.281 -0.072,-0.112 -6.907,-11.582 2.335,-20.831 7.576,-7.575 18.455,-6.082 24.183,-0.353 3.268,3.271 5.086,7.521 5.117,11.98 0,0.035 0,0.078 0,0.111 0,4.529 -1.885,8.903 -5.317,12.336 -4.152,4.146 -9.958,5.705 -15.927,4.26 -2.196,-0.536 -4.41,0.816 -4.941,3.014 -0.53,2.198 0.82,4.413 3.014,4.943 8.681,2.101 17.516,-0.299 23.642,-6.428 5.026,-5.024 7.8,-11.508 7.714,-18.294 -0.043,-6.625 -2.712,-12.919 -7.51,-17.716 -8.514,-8.515 -24.606,-10.8 -35.76,0.348 -11.091,11.094 -6.854,25.03 -3.856,30.346 l -13.215,13.22 c -3.05,3.049 -2.4,6.994 -0.236,9.154 14.864,14.863 36.802,18.414 54.949,10.627 -1.435,-2.26 -2.468,-4.803 -2.991,-7.526 z"
         id="path11"
         style="fill:#69af45"
         inkscape:connector-curvature="0" /></g><polygon
       points="120.326,226.795 113.571,218.003 116.565,214.88 120.327,219.661 132.115,210.038 133.581,211.503 "
       id="polygon13"
       style="fill:#ffffff" /><g
       id="g15"><path
         d="m 194.708,150.29 c 0,0 -10.349,-1.265 -14.666,-1.265 -7.301,0 -11.171,2.607 -11.171,8.413 0,6.699 3.576,7.818 12.587,9.829 10.274,2.305 14.816,4.838 14.816,13.854 0,11.39 -6.253,15.855 -16.458,15.855 -6.107,0 -16.306,-1.644 -16.306,-1.644 l 0.592,-4.765 c 0,0 10.131,1.341 15.416,1.341 7.297,0 11.02,-3.2 11.02,-10.35 0,-5.807 -3.053,-7.442 -11.466,-9.086 -10.648,-2.306 -16.012,-4.839 -16.012,-14.664 0,-9.98 6.551,-13.855 16.607,-13.855 6.105,0 15.563,1.488 15.563,1.488 z"
         id="path17"
         style="fill:#3a3b3b"
         inkscape:connector-curvature="0" /><path
         d="m 237.299,195.489 c -3.649,0.739 -9.306,1.564 -14.223,1.564 -15.412,0 -18.837,-9.384 -18.837,-26.362 0,-17.424 3.351,-26.657 18.837,-26.657 5.286,0 10.95,0.967 14.223,1.639 l -0.224,4.841 c -3.351,-0.596 -9.383,-1.337 -13.399,-1.337 -11.469,0 -13.481,6.847 -13.481,21.517 0,14.375 1.861,21.22 13.631,21.22 4.167,0 9.677,-0.666 13.25,-1.337 z"
         id="path19"
         style="fill:#3a3b3b"
         inkscape:connector-curvature="0" /><path
         d="m 256.285,144.78 h 12.508 l 14.15,51.531 h -5.657 l -3.727,-13.259 h -22.041 l -3.723,13.259 h -5.658 z m -3.5,33.135 h 19.509 l -7.818,-28.216 h -3.873 z"
         id="path21"
         style="fill:#3a3b3b"
         inkscape:connector-curvature="0" /><path
         d="m 296.789,178.959 v 17.352 h -5.736 V 144.78 h 18.843 c 11.241,0 16.454,5.432 16.454,16.6 0,11.244 -5.213,17.578 -16.454,17.578 h -13.107 z m 13.029,-5.063 c 7.521,0 10.65,-4.547 10.65,-12.512 0,-7.888 -3.127,-11.541 -10.65,-11.541 h -13.029 v 24.053 z"
         id="path23"
         style="fill:#3a3b3b"
         inkscape:connector-curvature="0" /></g><g
       id="g25"><path
         d="m 183.569,209.509 1.713,11.465 h 0.307 l 2.489,-11.465 h 3.265 l 2.488,11.465 h 0.305 l 1.714,-11.465 h 2.958 l -2.651,13.872 h -4.263 l -2.183,-10.547 -2.183,10.547 h -4.265 l -2.651,-13.872 z"
         id="path27"
         style="fill:#676767"
         inkscape:connector-curvature="0" /><path
         d="m 201.116,216.526 c 0,-4.69 1.387,-7.263 5.753,-7.263 4.365,0 5.752,2.57 5.752,7.263 0,4.691 -1.387,7.1 -5.752,7.1 -4.366,-0.001 -5.753,-2.408 -5.753,-7.1 z m 8.609,0 c 0,-3.202 -0.57,-4.812 -2.855,-4.812 -2.285,0 -2.857,1.612 -2.857,4.812 0,3.203 0.572,4.651 2.857,4.651 2.285,0 2.855,-1.448 2.855,-4.651 z"
         id="path29"
         style="fill:#676767"
         inkscape:connector-curvature="0" /><path
         d="m 218.865,218.728 v 4.652 h -2.813 v -13.871 h 5.385 c 3.161,0 4.895,1.407 4.895,4.569 0,1.917 -0.775,3.202 -2.04,3.999 l 1.979,5.303 h -3.081 l -1.61,-4.652 z m 2.572,-6.813 h -2.571 v 4.406 h 2.612 c 1.407,0 1.978,-0.979 1.978,-2.2 -10e-4,-1.329 -0.673,-2.206 -2.019,-2.206 z"
         id="path31"
         style="fill:#676767"
         inkscape:connector-curvature="0" /><path
         d="m 234.412,217.851 -1.876,0.204 v 5.324 h -2.815 v -13.872 h 2.815 v 6.102 l 1.876,-0.203 2.285,-5.896 h 3.203 l -3.019,6.958 3.101,6.914 h -3.246 z"
         id="path33"
         style="fill:#676767"
         inkscape:connector-curvature="0" /><path
         d="m 248.285,209.509 c 2.795,0 4.324,1.021 4.324,3.674 0,1.569 -0.427,2.366 -1.529,3.062 1.184,0.508 1.796,1.366 1.796,3.161 0,2.773 -1.734,3.978 -4.507,3.978 h -5.527 v -13.871 z m -2.633,2.406 v 3.307 h 2.51 c 1.101,0 1.59,-0.571 1.59,-1.675 0,-1.143 -0.549,-1.632 -1.612,-1.632 z m 0,5.672 v 3.387 h 2.571 c 1.162,0 1.796,-0.349 1.796,-1.714 0,-1.144 -0.674,-1.673 -1.796,-1.673 z"
         id="path35"
         style="fill:#676767"
         inkscape:connector-curvature="0" /><path
         d="m 256.284,209.509 h 8.976 v 2.446 h -6.161 v 3.245 h 4.938 v 2.409 h -4.938 v 3.324 h 6.161 v 2.447 h -8.976 z"
         id="path37"
         style="fill:#676767"
         inkscape:connector-curvature="0" /><path
         d="m 268.606,209.509 h 4.753 l 3.346,11.426 h 0.203 v -11.426 h 2.812 v 13.872 h -4.628 l -3.468,-11.426 h -0.202 v 11.426 h -2.815 z"
         id="path39"
         style="fill:#676767"
         inkscape:connector-curvature="0" /><path
         d="m 292.558,223.156 c -0.938,0.203 -2.774,0.47 -4.04,0.47 -4.285,0 -5.305,-2.325 -5.305,-7.183 0,-5.262 1.183,-7.181 5.305,-7.181 1.449,0 3.203,0.348 4.06,0.55 l -0.081,2.245 c -0.938,-0.144 -2.652,-0.307 -3.57,-0.307 -2.141,0 -2.814,0.755 -2.814,4.689 0,3.735 0.49,4.69 2.896,4.69 0.938,0 2.675,-0.163 3.489,-0.285 z"
         id="path41"
         style="fill:#676767"
         inkscape:connector-curvature="0" /><path
         d="m 303.841,217.627 h -5.16 v 5.753 h -2.814 v -13.871 h 2.814 v 5.67 h 5.16 v -5.67 h 2.814 v 13.871 h -2.814 z"
         id="path43"
         style="fill:#676767"
         inkscape:connector-curvature="0" /></g></g></svg>
