<?xml version="1.0" encoding="UTF-8" standalone="no"?>
<!-- Created with Inkscape (http://www.inkscape.org/) -->

<svg
   xmlns:dc="http://purl.org/dc/elements/1.1/"
   xmlns:cc="http://creativecommons.org/ns#"
   xmlns:rdf="http://www.w3.org/1999/02/22-rdf-syntax-ns#"
   xmlns:svg="http://www.w3.org/2000/svg"
   xmlns="http://www.w3.org/2000/svg"
   xmlns:xlink="http://www.w3.org/1999/xlink"
   xmlns:sodipodi="http://sodipodi.sourceforge.net/DTD/sodipodi-0.dtd"
   xmlns:inkscape="http://www.inkscape.org/namespaces/inkscape"
   version="1.1"
   width="366.99567"
   height="303.54843"
   viewBox="0 0 344.05844 284.57664"
   id="Layer_1"
   xml:space="preserve"
   inkscape:version="0.92+devel unknown"
   sodipodi:docname="oaa-vertical.svg"
   inkscape:export-xdpi="50"
   inkscape:export-ydpi="50"><sodipodi:namedview
     pagecolor="#ffffff"
     bordercolor="#666666"
     borderopacity="1"
     objecttolerance="10"
     gridtolerance="10"
     guidetolerance="10"
     inkscape:pageopacity="0"
     inkscape:pageshadow="2"
     inkscape:window-width="1916"
     inkscape:window-height="1029"
     id="namedview4897"
     showgrid="false"
     inkscape:zoom="0.58529268"
     inkscape:cx="89.946359"
     inkscape:cy="80.146487"
     inkscape:window-x="1920"
     inkscape:window-y="24"
     inkscape:window-maximized="0"
     inkscape:current-layer="Layer_1"
     inkscape:document-rotation="0"
     fit-margin-top="5"
     fit-margin-right="5"
     fit-margin-bottom="5"
     fit-margin-left="5" /><metadata
     id="metadata49"><rdf:RDF><cc:Work
         rdf:about=""><dc:format>image/svg+xml</dc:format><dc:type
           rdf:resource="http://purl.org/dc/dcmitype/StillImage" /><dc:title></dc:title></cc:Work></rdf:RDF></metadata><defs
     id="defs47"><linearGradient
       inkscape:collect="always"
       xlink:href="#linearGradient5108"
       id="linearGradient5214"
       gradientUnits="userSpaceOnUse"
       gradientTransform="matrix(1.5434492,0,0,1.5434492,-974.34567,-49.675576)"
       x1="756.74915"
       y1="61.417084"
       x2="756.74915"
       y2="280.28308" /><linearGradient
       gradientTransform="matrix(1,0,0,-1,-168,-249)"
       gradientUnits="userSpaceOnUse"
       id="linearGradient5108"
       y2="-594.35107"
       x2="348.1738"
       y1="-266.7012"
       x1="348.1738"><stop
         offset="0"
         style="stop-color:#0075b9;stop-opacity:1"
         id="stop5110" /><stop
         offset="1"
         style="stop-color:#00ff73;stop-opacity:1"
         id="stop5112" /></linearGradient></defs><text
     xml:space="preserve"
     style="font-style:normal;font-weight:normal;line-height:0%;font-family:sans-serif;letter-spacing:0px;word-spacing:0px;fill:#676767;fill-opacity:1;stroke:#676767;stroke-width:0.63470006px;stroke-linecap:butt;stroke-linejoin:miter;stroke-opacity:1"
     x="36.938328"
     y="279.19479"
     id="text4365"><tspan
       sodipodi:role="line"
       x="36.938328"
       y="279.19479"
       id="tspan4369"
       style="font-style:normal;font-variant:normal;font-weight:600;font-stretch:normal;font-size:26.62418747px;line-height:125%;font-family:Titillium;-inkscape-font-specification:'Titillium Semi-Bold';fill:#676767;fill-opacity:1;stroke:#676767;stroke-width:0.63470006px;stroke-opacity:1">ANACONDA ADDON</tspan></text>
<text
     xml:space="preserve"
     style="font-style:normal;font-weight:normal;line-height:0%;font-family:sans-serif;letter-spacing:0px;word-spacing:0px;fill:#3a3b3b;fill-opacity:1;stroke:none;stroke-width:1px;stroke-linecap:butt;stroke-linejoin:miter;stroke-opacity:1"
     x="-0.97758621"
     y="242.80014"
     id="text4373"><tspan
       sodipodi:role="line"
       id="tspan4375"
       x="-0.97758621"
       y="242.80014"
       style="font-style:normal;font-variant:normal;font-weight:normal;font-stretch:normal;font-size:100.88779449px;line-height:10;font-family:Titillium;-inkscape-font-specification:Titillium;fill:#3a3b3b;fill-opacity:1">OSCAP</tspan></text>
<g
     transform="matrix(0.36416707,0,0,0.36416707,75.872541,-0.78491476)"
     id="g5276-0-8"><path
       inkscape:connector-curvature="0"
       style="fill:#bbffcf;fill-opacity:1"
       id="path5-2-4-0"
       d="m 198.09966,15.027209 c -100.907573,0 -182.73154,82.919415 -182.73154,185.190981 0,3.49894 0.325613,6.9095 0.525903,10.35808 5.323941,-97.41871 84.746647,-174.827319 182.203407,-174.827319 97.46457,0 176.87273,77.406369 182.21794,174.827319 0.17567,-3.44858 0.50576,-6.85914 0.50576,-10.35808 C 380.81106,97.949982 299.00947,15.027209 198.09966,15.027209 Z" /><path
       style="opacity:1;fill:url(#linearGradient5214);fill-opacity:1;fill-rule:nonzero;stroke:none;stroke-width:3;stroke-linejoin:round;stroke-miterlimit:4;stroke-dasharray:none;stroke-opacity:1"
       d="M 198.4273,18.352352 A 183.30981,183.30981 0 0 0 15.118594,201.66106 183.30981,183.30981 0 0 0 198.4273,384.97279 183.30981,183.30981 0 0 0 381.73903,201.66106 183.30981,183.30981 0 0 0 198.4273,18.352352 Z"
       id="path4390-0-1-0"
       inkscape:connector-curvature="0" /><path
       d="m 197.79306,45.026123 c 86.50788,0 156.92308,68.641677 159.84242,154.442377 0.0335,-1.34386 0.14319,-2.66422 0.14319,-4.01141 0,-88.35973 -71.60353,-159.9834 -159.98564,-159.9834 -88.34294,0 -159.987859,71.62926 -159.987859,159.9834 0,1.60344 0.08168,3.1901 0.11973,4.7667 C 40.460429,114.09076 111.04907,45.026123 197.79303,45.026123 Z"
       id="path16-1-3-2"
       style="opacity:0.7;fill:#00667e;fill-opacity:1"
       inkscape:connector-curvature="0" /><path
       inkscape:connector-curvature="0"
       style="opacity:0.6;fill:#0095ff;fill-opacity:0.53588514"
       id="path20-5-6-2"
       d="m 198.42862,357.06631 c -43.88501,0 -83.61875,-17.69612 -112.481929,-46.3288 -5.919219,-6.68906 5.978524,-32.32185 5.978524,-32.32185 0,0 -10.46773,8.91576 -13.210265,13.38147 -5.214284,8.52859 -2.426992,17.21272 2.959609,23.99241 29.197741,31.7814 70.188061,50.81017 116.757431,50.81017 69.8059,0 159.78962,-51.36316 159.78962,-160.36548 C 322.8975,267.41737 253.94277,356.6394 198.42862,357.06631 Z"
       sodipodi:nodetypes="cccccccc" /><g
       id="g5279-4-8-2-4"
       transform="matrix(1.7852126,0,0,1.7852126,-250.10886,-148.32952)"
       style="fill:#005451;fill-opacity:1"><g
         id="g5303-9-0-0-6"
         style="fill:#005451;fill-opacity:1"><path
           inkscape:connector-curvature="0"
           id="path5305-7-7-5-7"
           transform="matrix(0.56015737,0,0,0.56015737,358.8931,83.087421)"
           d="m -191.95703,41.148438 c -42.65629,-0.375963 -83.05601,16.401484 -114.15625,47.5 -30.27007,30.268282 -46.64649,70.520562 -46.64649,113.121092 0,8.08523 0.59331,16.24405 1.79297,24.44531 2.0048,13.69973 6.13355,27.60743 12.3086,41.3125 2.98487,6.64635 10.80465,9.60954 17.44922,6.6211 6.65348,-2.9938 9.61684,-10.81281 6.62304,-17.46094 -5.09142,-11.29683 -8.63684,-23.16507 -10.25781,-34.28516 -3.68111,-25.31253 -3.74061,-73.93594 37.41211,-115.07617 26.86031,-26.871018 61.92663,-40.97012 98.71094,-39.697264 34.01544,1.172885 66.99253,15.304865 90.460934,38.771484 25.266114,25.2679 39.355893,58.75474 39.671875,94.29297 0.0036,0.41238 0.0039,0.80994 0.0039,1.21875 0,35.57393 -14.01739,69.15997 -39.556641,94.69922 -56.482348,56.47877 -138.413558,45.81926 -185.046878,3.55078 l 39.74609,-39.75391 c 7.50873,-6.29888 11.28411,-18.0634 4.43946,-29.41601 a 2.50025,2.50025 0 0 1 -0.16602,-0.0703 l -33.06055,-15.23438 c 2.06448,11.29882 5.9504,20.77608 9.34961,26.80664 l -42.61523,42.625 c -9.83652,9.83652 -7.74095,22.55023 -0.77148,29.52148 62.70737,62.69846 164.44068,62.98868 226.791014,0.63477 30.875252,-30.87704 47.564153,-71.71262 47.291015,-114.81836 -0.39274,-42.50414 -17.219915,-82.54058 -47.40429,-112.728524 -28.154589,-28.152803 -67.585079,-45.099554 -108.234379,-46.490235 -1.38047,-0.04792 -2.75875,-0.07772 -4.13476,-0.08984 z m -1.57422,79.083982 c -6.45521,0.0681 -12.97952,0.90544 -19.42969,2.58789 l 26.12891,21.875 26.97265,-17.73242 c -10.40159,-4.43951 -21.91951,-6.85451 -33.67187,-6.73047 z m -25.98828,4.60547 c -10.92143,3.88617 -21.47644,10.34011 -30.92969,19.79102 -2.91629,2.9176 -5.49926,5.89652 -7.78711,8.91601 l 31.56836,2.22656 z m 4.49023,2.77344 -6.32422,27.37109 c 9.22923,-5.78747 19.27669,-8.36182 29.04493,-8.35156 z m 62.85938,3.1289 3.12304,31.4043 30.39063,4.65039 c -4.03057,-8.50083 -9.56208,-16.37964 -16.47656,-23.29492 -4.95798,-4.9583 -10.72275,-9.24838 -17.03711,-12.75977 z m -4.98438,0.42774 -24.95898,16.4082 c 10.78122,2.00622 20.67097,7.08976 28.01562,14.30664 z m -99.77734,27.48242 12.45508,24.27344 c 2.35504,-6.58286 6.3468,-13.26407 12.69922,-19.61914 0.94046,-0.94053 1.90064,-1.82301 2.87109,-2.67774 z m -5.2832,0.65625 c -10.75863,17.15534 -12.69145,35.19296 -10.88477,50.59961 l 25.54297,-22.03516 z m 112.8457,7.8457 c 7.7279,9.72002 11.98345,21.44489 12.06836,33.65625 v 0.36524 c 26.39437,-0.54806 1.6e-4,-0.36495 26.39453,-0.54883 -0.0632,-9.82265 -1.9387,-19.41074 -5.42969,-28.41602 z m -97.6582,26.86328 -20.98633,18.10743 25.54297,11.77148 c -2.7025,-6.63032 -5.93785,-17.61314 -4.55664,-29.87891 z"
           style="fill:#005451;fill-opacity:1" /></g></g><path
       style="opacity:0.15;fill:#00532d;fill-opacity:1"
       id="path28-7-4"
       d="m 382.78227,201.35621 c 0,-16.64344 -2.23586,-32.78235 -6.39594,-48.10739 -34.87618,51.3008 -88.21552,89.3944 -152.95373,102.94754 -75.79044,15.85394 -151.17354,-5.26913 -208.314006,-51.3252 1.875786,99.77852 83.44444,180.10163 183.811586,180.10163 121.89738,0 183.85209,-103.66908 183.85209,-183.61658 z"
       inkscape:connector-curvature="0"
       sodipodi:nodetypes="cccccc"
       inkscape:export-xdpi="50"
       inkscape:export-ydpi="50" /><path
       inkscape:transform-center-y="2.5090261"
       inkscape:transform-center-x="-5.1640415"
       style="opacity:1;fill:#005451;fill-opacity:1;stroke:none;stroke-width:1;stroke-linejoin:round;stroke-miterlimit:4;stroke-dasharray:none;stroke-opacity:1"
       d="m 289.95985,234.55071 c -11.1089,25.08398 -42.54681,56.82179 -62.9181,47.8 -20.37129,-9.02179 -17.99739,-53.63113 -6.88852,-78.71518 11.1089,-25.08397 27.62405,-23.12594 47.99517,-14.10418 20.37133,9.02179 32.92034,19.93533 21.81145,45.01936 z"
       id="path5045-4-3"
       inkscape:connector-curvature="0"
       sodipodi:nodetypes="cccsc" /><path
       sodipodi:nodetypes="cccccc"
       inkscape:connector-curvature="0"
       id="path5142-6-8"
       d="m 248.2847,264.78018 c -3.83455,-15.42133 -9.15721,-9.32763 -9.15721,-9.32763 -19.56055,1.90177 -2.4532,43.23097 -66.36679,40.81833 16.99661,5.74433 0,0 16.99661,5.74433 -16.37006,9.21851 0,0 -16.37006,9.21851 67.97805,-4.23906 54.79258,-47.45936 74.89745,-46.45354 z"
       style="fill:#005451;fill-opacity:1;fill-rule:evenodd;stroke:none;stroke-width:1px;stroke-linecap:butt;stroke-linejoin:miter;stroke-opacity:1" /></g></svg>
