<?xml version="1.0" encoding="UTF-8" standalone="no"?>
<!-- Created with Inkscape (http://www.inkscape.org/) -->

<svg
   xmlns:dc="http://purl.org/dc/elements/1.1/"
   xmlns:cc="http://creativecommons.org/ns#"
   xmlns:rdf="http://www.w3.org/1999/02/22-rdf-syntax-ns#"
   xmlns:svg="http://www.w3.org/2000/svg"
   xmlns="http://www.w3.org/2000/svg"
   xmlns:xlink="http://www.w3.org/1999/xlink"
   xmlns:sodipodi="http://sodipodi.sourceforge.net/DTD/sodipodi-0.dtd"
   xmlns:inkscape="http://www.inkscape.org/namespaces/inkscape"
   version="1.1"
   width="744.92407"
   height="243.48753"
   viewBox="0 0 698.36632 228.26956"
   id="Layer_1"
   xml:space="preserve"
   inkscape:version="0.92+devel unknown"
   sodipodi:docname="openscap-daemon-horizontal.svg"
   inkscape:export-xdpi="50"
   inkscape:export-ydpi="50"><sodipodi:namedview
     pagecolor="#ffffff"
     bordercolor="#666666"
     borderopacity="1"
     objecttolerance="10"
     gridtolerance="10"
     guidetolerance="10"
     inkscape:pageopacity="0"
     inkscape:pageshadow="2"
     inkscape:window-width="1916"
     inkscape:window-height="1029"
     id="namedview4160"
     showgrid="false"
     inkscape:zoom="1.1508333"
     inkscape:cx="454.93167"
     inkscape:cy="83.382678"
     inkscape:window-x="1920"
     inkscape:window-y="24"
     inkscape:window-maximized="0"
     inkscape:current-layer="Layer_1"
     inkscape:document-rotation="0"
     fit-margin-top="5"
     fit-margin-bottom="5"
     fit-margin-right="5"
     fit-margin-left="5" /><metadata
     id="metadata49"><rdf:RDF><cc:Work
         rdf:about=""><dc:format>image/svg+xml</dc:format><dc:type
           rdf:resource="http://purl.org/dc/dcmitype/StillImage" /><dc:title></dc:title></cc:Work></rdf:RDF></metadata><defs
     id="defs47"><linearGradient
       gradientTransform="matrix(1,0,0,-1,-168,-249)"
       gradientUnits="userSpaceOnUse"
       id="linearGradient5108"
       y2="-594.35107"
       x2="348.1738"
       y1="-266.7012"
       x1="348.1738"><stop
         offset="0"
         style="stop-color:#0075b9;stop-opacity:1"
         id="stop5110" /><stop
         offset="1"
         style="stop-color:#00ff73;stop-opacity:1"
         id="stop5112" /></linearGradient><linearGradient
       gradientTransform="matrix(1,0,0,-1,-168,-249)"
       gradientUnits="userSpaceOnUse"
       id="linearGradient5108-4"
       y2="-594.35107"
       x2="348.1738"
       y1="-266.7012"
       x1="348.1738"><stop
         offset="0"
         style="stop-color:#06a8e9;stop-opacity:1"
         id="stop5110-6" /><stop
         offset="1"
         style="stop-color:#064780;stop-opacity:1"
         id="stop5112-2" /></linearGradient><linearGradient
       x1="348.1738"
       y1="-266.7012"
       x2="348.1738"
       y2="-594.35107"
       id="SVGID_1_-9"
       gradientUnits="userSpaceOnUse"
       gradientTransform="matrix(0.7677643,0,0,-0.7677643,-103.70048,153.59536)"
       xlink:href="#linearGradient5108-2"><stop
         id="stop8-7"
         style="stop-color:#92ffe9;stop-opacity:1"
         offset="0" /><stop
         id="stop10-8"
         style="stop-color:#007eff;stop-opacity:1"
         offset="1" /></linearGradient><linearGradient
       gradientTransform="matrix(1,0,0,-1,-168,-249)"
       gradientUnits="userSpaceOnUse"
       id="linearGradient5108-2"
       y2="-594.35107"
       x2="348.1738"
       y1="-266.7012"
       x1="348.1738"><stop
         offset="0"
         style="stop-color:#92ffe9;stop-opacity:1"
         id="stop5110-6-1" /><stop
         offset="1"
         style="stop-color:#007eff;stop-opacity:1"
         id="stop5112-8" /></linearGradient><linearGradient
       x1="348.1738"
       y1="-266.7012"
       x2="348.1738"
       y2="-594.35107"
       id="SVGID_1_-9-9"
       gradientUnits="userSpaceOnUse"
       gradientTransform="matrix(0.7677643,0,0,-0.7677643,-103.70048,153.59536)"
       xlink:href="#linearGradient5108-2"><stop
         id="stop8-7-7"
         style="stop-color:#92ffe9;stop-opacity:1"
         offset="0" /><stop
         id="stop10-8-6"
         style="stop-color:#007eff;stop-opacity:1"
         offset="1" /></linearGradient></defs><g
     id="g5737"
     transform="translate(-5.312507,-0.70211362)"><text
       id="text4373"
       y="90.949997"
       x="238.88998"
       style="font-style:normal;font-weight:normal;line-height:0%;font-family:sans-serif;letter-spacing:0px;word-spacing:0px;fill:#3a3b3b;fill-opacity:1;stroke:none;stroke-width:1px;stroke-linecap:butt;stroke-linejoin:miter;stroke-opacity:1"
       xml:space="preserve"><tspan
         style="font-style:normal;font-variant:normal;font-weight:normal;font-stretch:normal;font-size:87.5px;line-height:100%;font-family:Titillium;-inkscape-font-specification:Titillium;fill:#3a3b3b;fill-opacity:1;stroke:#3a3b3b;stroke-opacity:1"
         y="90.949997"
         x="238.88998"
         id="tspan4375"
         sodipodi:role="line">OpenSCAP</tspan><tspan
         id="tspan5068"
         style="font-style:normal;font-variant:normal;font-weight:normal;font-stretch:normal;font-size:100px;line-height:100%;font-family:Titillium;-inkscape-font-specification:Titillium;fill:#676767;fill-opacity:1;stroke:#676767;stroke-opacity:1"
         y="187.94707"
         x="238.88998"
         sodipodi:role="line">DAEMON</tspan></text>
<flowRoot
       style="font-style:normal;font-weight:normal;line-height:0.01%;font-family:sans-serif;letter-spacing:0px;word-spacing:0px;fill:#000000;fill-opacity:1;stroke:none;stroke-width:1px;stroke-linecap:butt;stroke-linejoin:miter;stroke-opacity:1"
       id="flowRoot5070"
       xml:space="preserve"><flowRegion
         id="flowRegion5072"><rect
           y="214.78639"
           x="318.03043"
           height="13.902969"
           width="155.53947"
           id="rect5074" /></flowRegion><flowPara
         id="flowPara5076"
         style="font-size:12.5px;line-height:1"> </flowPara></flowRoot><g
       transform="matrix(0.80887424,0,0,0.80887424,-17.685817,-282.6214)"
       id="g4988"><path
         inkscape:connector-curvature="0"
         d="m 159.78009,356.06402 c -69.23774,0 -125.38128,56.89517 -125.38128,127.06884 0,2.40078 0.22342,4.74093 0.36087,7.10719 3.653,-66.84388 58.14892,-119.95781 125.01887,-119.95781 66.87535,0 121.36128,53.1124 125.02889,119.95781 0.12054,-2.36626 0.34703,-4.70641 0.34703,-7.10719 -0.007,-70.17137 -56.13508,-127.06884 -125.37438,-127.06884 z"
         id="path5"
         style="fill:#000000;fill-opacity:0" /><path
         inkscape:connector-curvature="0"
         d="m 278.97933,525.04356 c 4.41005,-12.8232 6.80854,-26.58308 6.80854,-40.90572 0,-69.46653 -56.31397,-125.77821 -125.78129,-125.77821 -69.46578,0 -125.77898,56.31168 -125.77898,125.77821 0,69.4681 56.31244,125.77899 125.77898,125.77899 19.62867,0 38.20396,-4.49756 54.76003,-12.51685 8.21738,6.39777 18.53536,10.22353 29.73167,10.22353 26.74814,0 48.50658,-21.75612 48.50658,-48.50426 -7.8e-4,-13.27082 -5.36053,-25.31013 -14.02553,-34.07569 z"
         id="path12"
         style="fill:url(#SVGID_1_-9-9);fill-opacity:1" /><path
         inkscape:connector-curvature="0"
         d="m 195.32298,559.51771 c 0,-26.89478 21.79835,-48.69314 48.69083,-48.69314 13.37292,0 25.48364,5.39046 34.28299,14.1184 4.57818,-13.19785 7.07955,-27.39306 7.07955,-42.17942 0,-11.52415 -1.52555,-22.69895 -4.36397,-33.31023 -23.79608,35.5214 -60.18965,61.89793 -104.36066,71.28231 -51.712,10.97751 -103.14608,-3.64842 -142.13313,-35.53826 1.27985,69.08803 56.93432,124.70488 125.41506,124.70488 19.25706,0 37.49914,-4.40083 53.80338,-12.26274 -11.21627,-8.92141 -18.41405,-22.67667 -18.41405,-38.1218 z"
         id="path28-7"
         style="opacity:0.15;fill:#2b9bec;fill-opacity:1" /><g
         id="g14"
         style="opacity:0.4;fill:#2d7ca0;fill-opacity:1"
         transform="matrix(0.76776428,0,0,0.76776428,25.283924,344.76867)"><path
           inkscape:connector-curvature="0"
           d="m 174.905,41.522 c 77.312,0 140.242,61.345 142.851,138.025 0.03,-1.201 0.128,-2.381 0.128,-3.585 0,-78.967 -63.992,-142.977 -142.979,-142.977 -78.952,0 -142.981,64.015 -142.981,142.977 0,1.433 0.073,2.851 0.107,4.26 2.266,-76.977 65.351,-138.7 142.874,-138.7 z"
           id="path16"
           style="fill:#2d7ca0;fill-opacity:1" /></g><path
         inkscape:connector-curvature="0"
         d="m 244.13205,598.18694 c -21.41371,0 -38.83351,-17.42288 -38.83351,-38.83506 0,-21.41679 17.4221,-38.8389 38.83351,-38.8389 21.41602,0 38.83582,17.42519 38.83582,38.8389 -0.002,21.41218 -17.42056,38.83506 -38.83582,38.83506 z"
         id="path18"
         style="fill:#90fde9;fill-opacity:1" /><path
         inkscape:connector-curvature="0"
         d="m 202.88852,584.5975 c -0.49444,-0.62956 -0.99962,-1.36509 -1.45568,-2.21115 -12.92147,5.36052 -26.5631,8.36786 -41.42702,8.36786 -30.11173,0 -57.37502,-12.1422 -77.17949,-31.78852 -4.06149,-4.58969 4.10216,-22.17764 4.10216,-22.17764 0,0 -7.18245,6.11755 -9.06423,9.1817 -3.57778,5.85189 -1.66529,11.81051 2.03073,16.46239 20.03404,21.80682 48.15955,34.86341 80.11313,34.86341 15.67851,0 30.58543,-3.28986 44.0735,-9.21623 0.28639,-0.12669 0.56739,-0.24646 0.84915,-0.37237 -0.71708,-1.01268 -1.40193,-2.0438 -2.04225,-3.10945 z"
         id="path20"
         style="opacity:0.6;fill:#077bf1;fill-opacity:1" /><g
         id="g22"
         transform="matrix(0.76776428,0,0,0.76776428,25.283924,344.76867)"
         style="fill:#064780;fill-opacity:1"><path
           inkscape:connector-curvature="0"
           d="m 56.885,200.044 c -3.29,-22.62 -3.349,-66.079 33.432,-102.844 24.014,-24.018 55.344,-36.613 88.218,-35.478 30.403,1.04 59.871,13.677 80.846,34.646 22.587,22.581 35.177,52.511 35.455,84.274 0.007,0.369 0.007,0.726 0.007,1.095 0,12.013 -1.796,23.771 -5.25,34.978 8.116,0.583 15.811,2.692 22.792,6.069 4.089,-13.585 6.154,-27.827 6.062,-42.36 C 318.09,142.446 303.064,106.66 276.084,79.679 250.92,54.532 215.683,39.374 179.353,38.136 139.87,36.768 102.326,51.811 73.636,80.506 c -27.053,27.05 -41.688,63.022 -41.688,101.099 0,7.221 0.526,14.507 1.592,21.842 1.788,12.252 5.482,24.681 10.996,36.922 2.673,5.938 9.661,8.583 15.597,5.919 5.949,-2.687 8.598,-9.668 5.919,-15.609 C 61.5,220.58 58.333,209.992 56.885,200.044 Z"
           id="path24"
           style="fill:#064780;fill-opacity:1" /><path
           inkscape:connector-curvature="0"
           d="m 223.241,291.399 c -45.081,19.856 -96.675,7.573 -129.133,-21.853 l 35.517,-35.528 c 6.813,-5.72 10.189,-16.459 3.696,-26.75 -0.211,-0.321 -19.908,-33.38 6.731,-60.028 21.831,-21.83 53.184,-17.527 69.691,-1.007 9.421,9.417 14.658,21.673 14.749,34.521 0,0.103 0,0.228 0,0.324 0,13.052 -5.435,25.655 -15.325,35.552 -11.968,11.95 -28.694,16.438 -45.897,12.282 -6.329,-1.539 -12.707,2.361 -14.241,8.682 -1.525,6.336 2.362,12.714 8.687,14.25 25.017,6.05 50.478,-0.862 68.133,-18.526 14.485,-14.479 22.477,-33.162 22.225,-52.728 -0.118,-19.08 -7.812,-37.223 -21.643,-51.05 -24.533,-24.537 -70.911,-31.127 -103.054,1.005 -31.961,31.969 -19.75,72.128 -11.114,87.45 l -38.087,38.103 c -8.786,8.78 -6.917,20.154 -0.679,26.379 42.837,42.833 106.057,53.07 158.359,30.628 -4.132,-6.526 -7.108,-13.857 -8.615,-21.706 z"
           id="path26"
           style="fill:#064780;fill-opacity:1" /></g><g
         id="g6791"
         transform="matrix(1.0269089,0,0,1.0269089,-6.8946602,-17.758783)"><g
           transform="translate(1.4594049)"
           id="g4970"><g
             transform="translate(0.59113776,0.71972444)"
             id="g4984"><circle
               r="13.078059"
               cy="550.53119"
               cx="242.99385"
               id="path4947"
               style="opacity:1;fill:#064780;fill-opacity:1;stroke:none;stroke-width:5;stroke-linecap:round;stroke-linejoin:round;stroke-miterlimit:4;stroke-dasharray:none;stroke-opacity:1" /><path
               style="opacity:1;fill:#064780;fill-opacity:1;stroke:none;stroke-width:5;stroke-linecap:round;stroke-linejoin:round;stroke-miterlimit:4;stroke-dasharray:none;stroke-opacity:1"
               d="m 242.9941,564.92267 c -11.87991,0 -21.58239,8.24149 -22.19295,15.64896 -0.53604,7.50589 13.05533,10.34603 22.15546,10.34603 9.26049,0 23.41527,-3.29772 22.24079,-10.10299 -1.1e-4,-4.1e-4 1.2e-4,-6.6e-4 0,-9.1e-4 -0.41577,-7.46882 -10.19373,-15.89071 -22.2033,-15.89071 z"
               id="path4949"
               inkscape:connector-curvature="0"
               sodipodi:nodetypes="cccccsc" /></g></g></g></g></g></svg>
